G04 #@! TF.GenerationSoftware,KiCad,Pcbnew,(5.0.1)-3*
G04 #@! TF.CreationDate,2019-03-20T13:05:33+01:00*
G04 #@! TF.ProjectId,FeatherWing and xBee motherboard,4665617468657257696E6720616E6420,rev?*
G04 #@! TF.SameCoordinates,Original*
G04 #@! TF.FileFunction,Copper,L2,Bot,Signal*
G04 #@! TF.FilePolarity,Positive*
%FSLAX46Y46*%
G04 Gerber Fmt 4.6, Leading zero omitted, Abs format (unit mm)*
G04 Created by KiCad (PCBNEW (5.0.1)-3) date 20.03.2019 13:05:33*
%MOMM*%
%LPD*%
G01*
G04 APERTURE LIST*
G04 #@! TA.AperFunction,ViaPad*
%ADD10C,0.800000*%
G04 #@! TD*
G04 #@! TA.AperFunction,Conductor*
%ADD11C,0.254000*%
G04 #@! TD*
G04 APERTURE END LIST*
D10*
G04 #@! TO.N,/GND*
X112608300Y-133458000D03*
X98600799Y-130238000D03*
X112350268Y-88328000D03*
X113874000Y-101266000D03*
G04 #@! TD*
D11*
G04 #@! TO.N,/GND*
G36*
X143233367Y-74916552D02*
X143664429Y-75087222D01*
X144039508Y-75359732D01*
X144335033Y-75716960D01*
X144532432Y-76136454D01*
X144625419Y-76623913D01*
X144628400Y-76718760D01*
X144628401Y-137624899D01*
X144564848Y-138127967D01*
X144394177Y-138559031D01*
X144121667Y-138934109D01*
X143764440Y-139229633D01*
X143344946Y-139427032D01*
X142857487Y-139520019D01*
X142762640Y-139523000D01*
X86936493Y-139523000D01*
X86433433Y-139459448D01*
X86002369Y-139288777D01*
X85627291Y-139016267D01*
X85331767Y-138659040D01*
X85134368Y-138239546D01*
X85041381Y-137752087D01*
X85038400Y-137657240D01*
X85038400Y-76751101D01*
X85101952Y-76248033D01*
X85272622Y-75816971D01*
X85545132Y-75441892D01*
X85902360Y-75146367D01*
X86321854Y-74948968D01*
X86809313Y-74855981D01*
X86904160Y-74853000D01*
X142730299Y-74853000D01*
X143233367Y-74916552D01*
X143233367Y-74916552D01*
G37*
X143233367Y-74916552D02*
X143664429Y-75087222D01*
X144039508Y-75359732D01*
X144335033Y-75716960D01*
X144532432Y-76136454D01*
X144625419Y-76623913D01*
X144628400Y-76718760D01*
X144628401Y-137624899D01*
X144564848Y-138127967D01*
X144394177Y-138559031D01*
X144121667Y-138934109D01*
X143764440Y-139229633D01*
X143344946Y-139427032D01*
X142857487Y-139520019D01*
X142762640Y-139523000D01*
X86936493Y-139523000D01*
X86433433Y-139459448D01*
X86002369Y-139288777D01*
X85627291Y-139016267D01*
X85331767Y-138659040D01*
X85134368Y-138239546D01*
X85041381Y-137752087D01*
X85038400Y-137657240D01*
X85038400Y-76751101D01*
X85101952Y-76248033D01*
X85272622Y-75816971D01*
X85545132Y-75441892D01*
X85902360Y-75146367D01*
X86321854Y-74948968D01*
X86809313Y-74855981D01*
X86904160Y-74853000D01*
X142730299Y-74853000D01*
X143233367Y-74916552D01*
G04 #@! TD*
M02*
