G04 #@! TF.GenerationSoftware,KiCad,Pcbnew,(5.0.1)-3*
G04 #@! TF.CreationDate,2019-03-20T13:05:33+01:00*
G04 #@! TF.ProjectId,FeatherWing and xBee motherboard,4665617468657257696E6720616E6420,rev?*
G04 #@! TF.SameCoordinates,Original*
G04 #@! TF.FileFunction,Legend,Top*
G04 #@! TF.FilePolarity,Positive*
%FSLAX46Y46*%
G04 Gerber Fmt 4.6, Leading zero omitted, Abs format (unit mm)*
G04 Created by KiCad (PCBNEW (5.0.1)-3) date 20.03.2019 13:05:33*
%MOMM*%
%LPD*%
G01*
G04 APERTURE LIST*
%ADD10C,0.300000*%
%ADD11C,0.200000*%
%ADD12C,0.150000*%
%ADD13C,0.120000*%
%ADD14C,0.100000*%
G04 APERTURE END LIST*
D10*
X133145428Y-127744571D02*
X132645428Y-127030285D01*
X132288285Y-127744571D02*
X132288285Y-126244571D01*
X132859714Y-126244571D01*
X133002571Y-126316000D01*
X133074000Y-126387428D01*
X133145428Y-126530285D01*
X133145428Y-126744571D01*
X133074000Y-126887428D01*
X133002571Y-126958857D01*
X132859714Y-127030285D01*
X132288285Y-127030285D01*
X133788285Y-126958857D02*
X134288285Y-126958857D01*
X134502571Y-127744571D02*
X133788285Y-127744571D01*
X133788285Y-126244571D01*
X134502571Y-126244571D01*
X135074000Y-127673142D02*
X135288285Y-127744571D01*
X135645428Y-127744571D01*
X135788285Y-127673142D01*
X135859714Y-127601714D01*
X135931142Y-127458857D01*
X135931142Y-127316000D01*
X135859714Y-127173142D01*
X135788285Y-127101714D01*
X135645428Y-127030285D01*
X135359714Y-126958857D01*
X135216857Y-126887428D01*
X135145428Y-126816000D01*
X135074000Y-126673142D01*
X135074000Y-126530285D01*
X135145428Y-126387428D01*
X135216857Y-126316000D01*
X135359714Y-126244571D01*
X135716857Y-126244571D01*
X135931142Y-126316000D01*
X136574000Y-126958857D02*
X137074000Y-126958857D01*
X137288285Y-127744571D02*
X136574000Y-127744571D01*
X136574000Y-126244571D01*
X137288285Y-126244571D01*
X137716857Y-126244571D02*
X138574000Y-126244571D01*
X138145428Y-127744571D02*
X138145428Y-126244571D01*
D11*
X133145428Y-110194571D02*
X132645428Y-109480285D01*
X132288285Y-110194571D02*
X132288285Y-108694571D01*
X132859714Y-108694571D01*
X133002571Y-108766000D01*
X133074000Y-108837428D01*
X133145428Y-108980285D01*
X133145428Y-109194571D01*
X133074000Y-109337428D01*
X133002571Y-109408857D01*
X132859714Y-109480285D01*
X132288285Y-109480285D01*
X134431142Y-110194571D02*
X134431142Y-109408857D01*
X134359714Y-109266000D01*
X134216857Y-109194571D01*
X133931142Y-109194571D01*
X133788285Y-109266000D01*
X134431142Y-110123142D02*
X134288285Y-110194571D01*
X133931142Y-110194571D01*
X133788285Y-110123142D01*
X133716857Y-109980285D01*
X133716857Y-109837428D01*
X133788285Y-109694571D01*
X133931142Y-109623142D01*
X134288285Y-109623142D01*
X134431142Y-109551714D01*
X135788285Y-110194571D02*
X135788285Y-108694571D01*
X135788285Y-110123142D02*
X135645428Y-110194571D01*
X135359714Y-110194571D01*
X135216857Y-110123142D01*
X135145428Y-110051714D01*
X135074000Y-109908857D01*
X135074000Y-109480285D01*
X135145428Y-109337428D01*
X135216857Y-109266000D01*
X135359714Y-109194571D01*
X135645428Y-109194571D01*
X135788285Y-109266000D01*
X136502571Y-110194571D02*
X136502571Y-109194571D01*
X136502571Y-108694571D02*
X136431142Y-108766000D01*
X136502571Y-108837428D01*
X136574000Y-108766000D01*
X136502571Y-108694571D01*
X136502571Y-108837428D01*
X137431142Y-110194571D02*
X137288285Y-110123142D01*
X137216857Y-110051714D01*
X137145428Y-109908857D01*
X137145428Y-109480285D01*
X137216857Y-109337428D01*
X137288285Y-109266000D01*
X137431142Y-109194571D01*
X137645428Y-109194571D01*
X137788285Y-109266000D01*
X137859714Y-109337428D01*
X137931142Y-109480285D01*
X137931142Y-109908857D01*
X137859714Y-110051714D01*
X137788285Y-110123142D01*
X137645428Y-110194571D01*
X137431142Y-110194571D01*
X118159714Y-109244571D02*
X118159714Y-110244571D01*
X118159714Y-109387428D02*
X118231142Y-109316000D01*
X118374000Y-109244571D01*
X118588285Y-109244571D01*
X118731142Y-109316000D01*
X118802571Y-109458857D01*
X118802571Y-110244571D01*
X120374000Y-110244571D02*
X119874000Y-109530285D01*
X119516857Y-110244571D02*
X119516857Y-108744571D01*
X120088285Y-108744571D01*
X120231142Y-108816000D01*
X120302571Y-108887428D01*
X120374000Y-109030285D01*
X120374000Y-109244571D01*
X120302571Y-109387428D01*
X120231142Y-109458857D01*
X120088285Y-109530285D01*
X119516857Y-109530285D01*
X121516857Y-109458857D02*
X121016857Y-109458857D01*
X121016857Y-110244571D02*
X121016857Y-108744571D01*
X121731142Y-108744571D01*
D12*
X107612095Y-77766000D02*
X107516857Y-77718380D01*
X107374000Y-77718380D01*
X107231142Y-77766000D01*
X107135904Y-77861238D01*
X107088285Y-77956476D01*
X107040666Y-78146952D01*
X107040666Y-78289809D01*
X107088285Y-78480285D01*
X107135904Y-78575523D01*
X107231142Y-78670761D01*
X107374000Y-78718380D01*
X107469238Y-78718380D01*
X107612095Y-78670761D01*
X107659714Y-78623142D01*
X107659714Y-78289809D01*
X107469238Y-78289809D01*
X108088285Y-78718380D02*
X108088285Y-77718380D01*
X108659714Y-78718380D01*
X108659714Y-77718380D01*
X109135904Y-78718380D02*
X109135904Y-77718380D01*
X109374000Y-77718380D01*
X109516857Y-77766000D01*
X109612095Y-77861238D01*
X109659714Y-77956476D01*
X109707333Y-78146952D01*
X109707333Y-78289809D01*
X109659714Y-78480285D01*
X109612095Y-78575523D01*
X109516857Y-78670761D01*
X109374000Y-78718380D01*
X109135904Y-78718380D01*
X86885904Y-78718380D02*
X86552571Y-78242190D01*
X86314476Y-78718380D02*
X86314476Y-77718380D01*
X86695428Y-77718380D01*
X86790666Y-77766000D01*
X86838285Y-77813619D01*
X86885904Y-77908857D01*
X86885904Y-78051714D01*
X86838285Y-78146952D01*
X86790666Y-78194571D01*
X86695428Y-78242190D01*
X86314476Y-78242190D01*
X87695428Y-78670761D02*
X87600190Y-78718380D01*
X87409714Y-78718380D01*
X87314476Y-78670761D01*
X87266857Y-78575523D01*
X87266857Y-78194571D01*
X87314476Y-78099333D01*
X87409714Y-78051714D01*
X87600190Y-78051714D01*
X87695428Y-78099333D01*
X87743047Y-78194571D01*
X87743047Y-78289809D01*
X87266857Y-78385047D01*
X88124000Y-78670761D02*
X88219238Y-78718380D01*
X88409714Y-78718380D01*
X88504952Y-78670761D01*
X88552571Y-78575523D01*
X88552571Y-78527904D01*
X88504952Y-78432666D01*
X88409714Y-78385047D01*
X88266857Y-78385047D01*
X88171619Y-78337428D01*
X88124000Y-78242190D01*
X88124000Y-78194571D01*
X88171619Y-78099333D01*
X88266857Y-78051714D01*
X88409714Y-78051714D01*
X88504952Y-78099333D01*
X89362095Y-78670761D02*
X89266857Y-78718380D01*
X89076380Y-78718380D01*
X88981142Y-78670761D01*
X88933523Y-78575523D01*
X88933523Y-78194571D01*
X88981142Y-78099333D01*
X89076380Y-78051714D01*
X89266857Y-78051714D01*
X89362095Y-78099333D01*
X89409714Y-78194571D01*
X89409714Y-78289809D01*
X88933523Y-78385047D01*
X89695428Y-78051714D02*
X90076380Y-78051714D01*
X89838285Y-77718380D02*
X89838285Y-78575523D01*
X89885904Y-78670761D01*
X89981142Y-78718380D01*
X90076380Y-78718380D01*
D10*
X122552571Y-135873142D02*
X123695428Y-135873142D01*
X130052571Y-135873142D02*
X131195428Y-135873142D01*
X130624000Y-136444571D02*
X130624000Y-135301714D01*
X140802571Y-135873142D02*
X141945428Y-135873142D01*
X141374000Y-136444571D02*
X141374000Y-135301714D01*
X133302571Y-135873142D02*
X134445428Y-135873142D01*
D11*
X118866857Y-119044571D02*
X118866857Y-117544571D01*
X119438285Y-117544571D01*
X119581142Y-117616000D01*
X119652571Y-117687428D01*
X119724000Y-117830285D01*
X119724000Y-118044571D01*
X119652571Y-118187428D01*
X119581142Y-118258857D01*
X119438285Y-118330285D01*
X118866857Y-118330285D01*
X120224000Y-117544571D02*
X121152571Y-117544571D01*
X120652571Y-118116000D01*
X120866857Y-118116000D01*
X121009714Y-118187428D01*
X121081142Y-118258857D01*
X121152571Y-118401714D01*
X121152571Y-118758857D01*
X121081142Y-118901714D01*
X121009714Y-118973142D01*
X120866857Y-119044571D01*
X120438285Y-119044571D01*
X120295428Y-118973142D01*
X120224000Y-118901714D01*
X124266857Y-114549571D02*
X124266857Y-113049571D01*
X124838285Y-113049571D01*
X124981142Y-113121000D01*
X125052571Y-113192428D01*
X125124000Y-113335285D01*
X125124000Y-113549571D01*
X125052571Y-113692428D01*
X124981142Y-113763857D01*
X124838285Y-113835285D01*
X124266857Y-113835285D01*
X125695428Y-113192428D02*
X125766857Y-113121000D01*
X125909714Y-113049571D01*
X126266857Y-113049571D01*
X126409714Y-113121000D01*
X126481142Y-113192428D01*
X126552571Y-113335285D01*
X126552571Y-113478142D01*
X126481142Y-113692428D01*
X125624000Y-114549571D01*
X126552571Y-114549571D01*
X139666857Y-114549571D02*
X139666857Y-113049571D01*
X140238285Y-113049571D01*
X140381142Y-113121000D01*
X140452571Y-113192428D01*
X140524000Y-113335285D01*
X140524000Y-113549571D01*
X140452571Y-113692428D01*
X140381142Y-113763857D01*
X140238285Y-113835285D01*
X139666857Y-113835285D01*
X141095428Y-113192428D02*
X141166857Y-113121000D01*
X141309714Y-113049571D01*
X141666857Y-113049571D01*
X141809714Y-113121000D01*
X141881142Y-113192428D01*
X141952571Y-113335285D01*
X141952571Y-113478142D01*
X141881142Y-113692428D01*
X141024000Y-114549571D01*
X141952571Y-114549571D01*
X124466857Y-122994571D02*
X124466857Y-121494571D01*
X125038285Y-121494571D01*
X125181142Y-121566000D01*
X125252571Y-121637428D01*
X125324000Y-121780285D01*
X125324000Y-121994571D01*
X125252571Y-122137428D01*
X125181142Y-122208857D01*
X125038285Y-122280285D01*
X124466857Y-122280285D01*
X126752571Y-122994571D02*
X125895428Y-122994571D01*
X126324000Y-122994571D02*
X126324000Y-121494571D01*
X126181142Y-121708857D01*
X126038285Y-121851714D01*
X125895428Y-121923142D01*
X136501157Y-132136571D02*
X136501157Y-130636571D01*
X137072585Y-130636571D01*
X137215442Y-130708000D01*
X137286871Y-130779428D01*
X137358300Y-130922285D01*
X137358300Y-131136571D01*
X137286871Y-131279428D01*
X137215442Y-131350857D01*
X137072585Y-131422285D01*
X136501157Y-131422285D01*
X137929728Y-130779428D02*
X138001157Y-130708000D01*
X138144014Y-130636571D01*
X138501157Y-130636571D01*
X138644014Y-130708000D01*
X138715442Y-130779428D01*
X138786871Y-130922285D01*
X138786871Y-131065142D01*
X138715442Y-131279428D01*
X137858300Y-132136571D01*
X138786871Y-132136571D01*
X125866857Y-132044571D02*
X125866857Y-130544571D01*
X126438285Y-130544571D01*
X126581142Y-130616000D01*
X126652571Y-130687428D01*
X126724000Y-130830285D01*
X126724000Y-131044571D01*
X126652571Y-131187428D01*
X126581142Y-131258857D01*
X126438285Y-131330285D01*
X125866857Y-131330285D01*
X128152571Y-132044571D02*
X127295428Y-132044571D01*
X127724000Y-132044571D02*
X127724000Y-130544571D01*
X127581142Y-130758857D01*
X127438285Y-130901714D01*
X127295428Y-130973142D01*
X113016857Y-114549571D02*
X113016857Y-113049571D01*
X113588285Y-113049571D01*
X113731142Y-113121000D01*
X113802571Y-113192428D01*
X113874000Y-113335285D01*
X113874000Y-113549571D01*
X113802571Y-113692428D01*
X113731142Y-113763857D01*
X113588285Y-113835285D01*
X113016857Y-113835285D01*
X114374000Y-113049571D02*
X115302571Y-113049571D01*
X114802571Y-113621000D01*
X115016857Y-113621000D01*
X115159714Y-113692428D01*
X115231142Y-113763857D01*
X115302571Y-113906714D01*
X115302571Y-114263857D01*
X115231142Y-114406714D01*
X115159714Y-114478142D01*
X115016857Y-114549571D01*
X114588285Y-114549571D01*
X114445428Y-114478142D01*
X114374000Y-114406714D01*
X111931142Y-121444571D02*
X111931142Y-122658857D01*
X112002571Y-122801714D01*
X112074000Y-122873142D01*
X112216857Y-122944571D01*
X112502571Y-122944571D01*
X112645428Y-122873142D01*
X112716857Y-122801714D01*
X112788285Y-122658857D01*
X112788285Y-121444571D01*
X113431142Y-122873142D02*
X113645428Y-122944571D01*
X114002571Y-122944571D01*
X114145428Y-122873142D01*
X114216857Y-122801714D01*
X114288285Y-122658857D01*
X114288285Y-122516000D01*
X114216857Y-122373142D01*
X114145428Y-122301714D01*
X114002571Y-122230285D01*
X113716857Y-122158857D01*
X113574000Y-122087428D01*
X113502571Y-122016000D01*
X113431142Y-121873142D01*
X113431142Y-121730285D01*
X113502571Y-121587428D01*
X113574000Y-121516000D01*
X113716857Y-121444571D01*
X114074000Y-121444571D01*
X114288285Y-121516000D01*
X115431142Y-122158857D02*
X115645428Y-122230285D01*
X115716857Y-122301714D01*
X115788285Y-122444571D01*
X115788285Y-122658857D01*
X115716857Y-122801714D01*
X115645428Y-122873142D01*
X115502571Y-122944571D01*
X114931142Y-122944571D01*
X114931142Y-121444571D01*
X115431142Y-121444571D01*
X115574000Y-121516000D01*
X115645428Y-121587428D01*
X115716857Y-121730285D01*
X115716857Y-121873142D01*
X115645428Y-122016000D01*
X115574000Y-122087428D01*
X115431142Y-122158857D01*
X114931142Y-122158857D01*
X112385942Y-132972571D02*
X112385942Y-134186857D01*
X112457371Y-134329714D01*
X112528800Y-134401142D01*
X112671657Y-134472571D01*
X112957371Y-134472571D01*
X113100228Y-134401142D01*
X113171657Y-134329714D01*
X113243085Y-134186857D01*
X113243085Y-132972571D01*
X113885942Y-134401142D02*
X114100228Y-134472571D01*
X114457371Y-134472571D01*
X114600228Y-134401142D01*
X114671657Y-134329714D01*
X114743085Y-134186857D01*
X114743085Y-134044000D01*
X114671657Y-133901142D01*
X114600228Y-133829714D01*
X114457371Y-133758285D01*
X114171657Y-133686857D01*
X114028800Y-133615428D01*
X113957371Y-133544000D01*
X113885942Y-133401142D01*
X113885942Y-133258285D01*
X113957371Y-133115428D01*
X114028800Y-133044000D01*
X114171657Y-132972571D01*
X114528800Y-132972571D01*
X114743085Y-133044000D01*
X115885942Y-133686857D02*
X116100228Y-133758285D01*
X116171657Y-133829714D01*
X116243085Y-133972571D01*
X116243085Y-134186857D01*
X116171657Y-134329714D01*
X116100228Y-134401142D01*
X115957371Y-134472571D01*
X115385942Y-134472571D01*
X115385942Y-132972571D01*
X115885942Y-132972571D01*
X116028800Y-133044000D01*
X116100228Y-133115428D01*
X116171657Y-133258285D01*
X116171657Y-133401142D01*
X116100228Y-133544000D01*
X116028800Y-133615428D01*
X115885942Y-133686857D01*
X115385942Y-133686857D01*
X128416857Y-114549571D02*
X128416857Y-113049571D01*
X128988285Y-113049571D01*
X129131142Y-113121000D01*
X129202571Y-113192428D01*
X129274000Y-113335285D01*
X129274000Y-113549571D01*
X129202571Y-113692428D01*
X129131142Y-113763857D01*
X128988285Y-113835285D01*
X128416857Y-113835285D01*
X129774000Y-113049571D02*
X130702571Y-113049571D01*
X130202571Y-113621000D01*
X130416857Y-113621000D01*
X130559714Y-113692428D01*
X130631142Y-113763857D01*
X130702571Y-113906714D01*
X130702571Y-114263857D01*
X130631142Y-114406714D01*
X130559714Y-114478142D01*
X130416857Y-114549571D01*
X129988285Y-114549571D01*
X129845428Y-114478142D01*
X129774000Y-114406714D01*
D12*
X98408895Y-106660380D02*
X98408895Y-107469904D01*
X98456514Y-107565142D01*
X98504133Y-107612761D01*
X98599371Y-107660380D01*
X98789847Y-107660380D01*
X98885085Y-107612761D01*
X98932704Y-107565142D01*
X98980323Y-107469904D01*
X98980323Y-106660380D01*
X99408895Y-106755619D02*
X99456514Y-106708000D01*
X99551752Y-106660380D01*
X99789847Y-106660380D01*
X99885085Y-106708000D01*
X99932704Y-106755619D01*
X99980323Y-106850857D01*
X99980323Y-106946095D01*
X99932704Y-107088952D01*
X99361276Y-107660380D01*
X99980323Y-107660380D01*
D13*
G04 #@! TO.C,J1*
X118880800Y-135848000D02*
X118500800Y-135848000D01*
X118880800Y-139898000D02*
X118880800Y-140158000D01*
X118880800Y-135848000D02*
X118880800Y-137618000D01*
X111260800Y-135848000D02*
X111640800Y-135848000D01*
X111260800Y-137618000D02*
X111260800Y-135848000D01*
X111260800Y-140158000D02*
X111260800Y-139898000D01*
G04 #@! TO.C,R1*
X96590800Y-130941733D02*
X96590800Y-131284267D01*
X97610800Y-130941733D02*
X97610800Y-131284267D01*
G04 #@! TO.C,R2*
X100610800Y-130941733D02*
X100610800Y-131284267D01*
X99590800Y-130941733D02*
X99590800Y-131284267D01*
G04 #@! TO.C,SW4*
X115964000Y-115296000D02*
X115964000Y-112636000D01*
X123704000Y-115296000D02*
X123704000Y-112636000D01*
X115964000Y-112636000D02*
X119074000Y-112636000D01*
X116534000Y-115296000D02*
X116534000Y-116816000D01*
X115964000Y-115296000D02*
X116534000Y-115296000D01*
X123134000Y-112636000D02*
X123704000Y-112636000D01*
X120594000Y-112636000D02*
X123704000Y-112636000D01*
X118054000Y-115296000D02*
X121614000Y-115296000D01*
G04 #@! TO.C,SW5*
X133368800Y-115296000D02*
X136928800Y-115296000D01*
X135908800Y-112636000D02*
X139018800Y-112636000D01*
X138448800Y-112636000D02*
X139018800Y-112636000D01*
X131278800Y-115296000D02*
X131848800Y-115296000D01*
X131848800Y-115296000D02*
X131848800Y-116816000D01*
X131278800Y-112636000D02*
X134388800Y-112636000D01*
X139018800Y-115296000D02*
X139018800Y-112636000D01*
X131278800Y-115296000D02*
X131278800Y-112636000D01*
G04 #@! TO.C,C1*
X117834000Y-127465733D02*
X117834000Y-127808267D01*
X116814000Y-127465733D02*
X116814000Y-127808267D01*
G04 #@! TO.C,U1*
X139164000Y-81906000D02*
X141784000Y-81906000D01*
X141784000Y-81906000D02*
X141784000Y-82556000D01*
X141784000Y-83976000D02*
X141784000Y-86556000D01*
X141784000Y-87976000D02*
X141784000Y-90556000D01*
X141784000Y-91976000D02*
X141784000Y-94556000D01*
X141784000Y-95976000D02*
X141784000Y-98556000D01*
X141784000Y-99976000D02*
X141784000Y-102626000D01*
X139164000Y-102626000D02*
X141784000Y-102626000D01*
X139164000Y-81906000D02*
X139164000Y-84556000D01*
X139164000Y-85976000D02*
X139164000Y-88556000D01*
X139164000Y-89976000D02*
X139164000Y-92556000D01*
X139164000Y-93976000D02*
X139164000Y-96556000D01*
X139164000Y-97976000D02*
X139164000Y-100556000D01*
X139164000Y-101976000D02*
X139164000Y-102626000D01*
X141784000Y-82556000D02*
X143014000Y-82556000D01*
X117164000Y-81906000D02*
X119784000Y-81906000D01*
X119784000Y-81906000D02*
X119784000Y-82556000D01*
X119784000Y-83976000D02*
X119784000Y-86556000D01*
X119784000Y-87976000D02*
X119784000Y-90556000D01*
X119784000Y-91976000D02*
X119784000Y-94556000D01*
X119784000Y-95976000D02*
X119784000Y-98556000D01*
X119784000Y-99976000D02*
X119784000Y-102626000D01*
X117164000Y-102626000D02*
X119784000Y-102626000D01*
X117164000Y-81906000D02*
X117164000Y-84556000D01*
X117164000Y-85976000D02*
X117164000Y-88556000D01*
X117164000Y-89976000D02*
X117164000Y-92556000D01*
X117164000Y-93976000D02*
X117164000Y-96556000D01*
X117164000Y-97976000D02*
X117164000Y-100556000D01*
X117164000Y-101976000D02*
X117164000Y-102626000D01*
X119784000Y-82556000D02*
X121014000Y-82556000D01*
D14*
X141854000Y-108316000D02*
X141354000Y-108316000D01*
X141854000Y-108316000D02*
X141854000Y-107816000D01*
X117054000Y-108316000D02*
X117554000Y-108316000D01*
X117054000Y-108316000D02*
X117054000Y-107816000D01*
X117054000Y-82716000D02*
X117054000Y-83216000D01*
X117054000Y-82716000D02*
X117454000Y-82316000D01*
X141854000Y-82716000D02*
X141454000Y-82316000D01*
X141854000Y-82716000D02*
X141854000Y-83216000D01*
X124654000Y-75116000D02*
X124254000Y-75516000D01*
X124654000Y-75116000D02*
X125154000Y-75116000D01*
X134254000Y-75116000D02*
X133754000Y-75116000D01*
X134254000Y-75116000D02*
X134654000Y-75516000D01*
X117054000Y-92216000D02*
X117054000Y-96016000D01*
X141854000Y-92216000D02*
X141854000Y-96016000D01*
D13*
G04 #@! TO.C,U2*
X87054532Y-117026070D02*
X85844532Y-117026070D01*
X89714532Y-87566070D02*
X89714532Y-86896070D01*
X89714532Y-92646070D02*
X89714532Y-89086070D01*
X89714532Y-97726070D02*
X89714532Y-94166070D01*
X89714532Y-102806070D02*
X89714532Y-99246070D01*
X89714532Y-107886070D02*
X89714532Y-104326070D01*
X89714532Y-112966070D02*
X89714532Y-109406070D01*
X89714532Y-117696070D02*
X89714532Y-114486070D01*
X89714532Y-86896070D02*
X87054532Y-86896070D01*
X87054532Y-90106070D02*
X87054532Y-86896070D01*
X87054532Y-95186070D02*
X87054532Y-91626070D01*
X87054532Y-100266070D02*
X87054532Y-96706070D01*
X87054532Y-105346070D02*
X87054532Y-101786070D01*
X87054532Y-110426070D02*
X87054532Y-106866070D01*
X87054532Y-115506070D02*
X87054532Y-111946070D01*
X87054532Y-117696070D02*
X87054532Y-117026070D01*
X89714532Y-117696070D02*
X87054532Y-117696070D01*
X107370268Y-127188000D02*
X106160268Y-127188000D01*
X110030268Y-87568000D02*
X110030268Y-86898000D01*
X110030268Y-92648000D02*
X110030268Y-89088000D01*
X110030268Y-97728000D02*
X110030268Y-94168000D01*
X110030268Y-102808000D02*
X110030268Y-99248000D01*
X110030268Y-107888000D02*
X110030268Y-104328000D01*
X110030268Y-112968000D02*
X110030268Y-109408000D01*
X110030268Y-118048000D02*
X110030268Y-114488000D01*
X110030268Y-123128000D02*
X110030268Y-119568000D01*
X110030268Y-127858000D02*
X110030268Y-124648000D01*
X110030268Y-86898000D02*
X107370268Y-86898000D01*
X107370268Y-90108000D02*
X107370268Y-86898000D01*
X107370268Y-95188000D02*
X107370268Y-91628000D01*
X107370268Y-100268000D02*
X107370268Y-96708000D01*
X107370268Y-105348000D02*
X107370268Y-101788000D01*
X107370268Y-110428000D02*
X107370268Y-106868000D01*
X107370268Y-115508000D02*
X107370268Y-111948000D01*
X107370268Y-120588000D02*
X107370268Y-117028000D01*
X107370268Y-125668000D02*
X107370268Y-122108000D01*
X107370268Y-127858000D02*
X107370268Y-127188000D01*
X110030268Y-127858000D02*
X107370268Y-127858000D01*
D12*
X91446319Y-84518000D02*
G75*
G03X91446319Y-84518000I-1796051J0D01*
G01*
X91446319Y-130238000D02*
G75*
G03X91446319Y-130238000I-1796051J0D01*
G01*
X109226319Y-130238000D02*
G75*
G03X109226319Y-130238000I-1796051J0D01*
G01*
X109226319Y-84518000D02*
G75*
G03X109226319Y-84518000I-1796051J0D01*
G01*
D13*
G04 #@! TO.C,J2*
X129578800Y-134475000D02*
X129578800Y-137135000D01*
X124378800Y-134475000D02*
X124378800Y-137135000D01*
X129578800Y-137135000D02*
X126468800Y-137135000D01*
X129008800Y-134475000D02*
X129008800Y-132955000D01*
X129578800Y-134475000D02*
X129008800Y-134475000D01*
X124948800Y-137135000D02*
X124378800Y-137135000D01*
X127488800Y-134475000D02*
X124378800Y-134475000D01*
G04 #@! TO.C,J3*
X138388300Y-134578000D02*
X135278300Y-134578000D01*
X135848300Y-137238000D02*
X135278300Y-137238000D01*
X140478300Y-134578000D02*
X139908300Y-134578000D01*
X139908300Y-134578000D02*
X139908300Y-133058000D01*
X140478300Y-137238000D02*
X137368300Y-137238000D01*
X135278300Y-134578000D02*
X135278300Y-137238000D01*
X140478300Y-134578000D02*
X140478300Y-137238000D01*
G04 #@! TO.C,R3*
X141364000Y-121162267D02*
X141364000Y-120819733D01*
X142384000Y-121162267D02*
X142384000Y-120819733D01*
G04 #@! TO.C,J4*
X90787400Y-79498000D02*
X90787400Y-76838000D01*
X90787400Y-76838000D02*
X91457400Y-76838000D01*
X92977400Y-76838000D02*
X96537400Y-76838000D01*
X98057400Y-76838000D02*
X101617400Y-76838000D01*
X103137400Y-76838000D02*
X106347400Y-76838000D01*
X106347400Y-79498000D02*
X106347400Y-76838000D01*
X90787400Y-79498000D02*
X93997400Y-79498000D01*
X95517400Y-79498000D02*
X99077400Y-79498000D01*
X100597400Y-79498000D02*
X104157400Y-79498000D01*
X105677400Y-79498000D02*
X106347400Y-79498000D01*
X91457400Y-76838000D02*
X91457400Y-75628000D01*
G04 #@! TO.C,SW6*
X118084000Y-123741000D02*
X121644000Y-123741000D01*
X120624000Y-121081000D02*
X123734000Y-121081000D01*
X123164000Y-121081000D02*
X123734000Y-121081000D01*
X115994000Y-123741000D02*
X116564000Y-123741000D01*
X116564000Y-123741000D02*
X116564000Y-125261000D01*
X115994000Y-121081000D02*
X119104000Y-121081000D01*
X123734000Y-123741000D02*
X123734000Y-121081000D01*
X115994000Y-123741000D02*
X115994000Y-121081000D01*
G04 #@! TO.C,*
D12*
G04 #@! TO.C,J1*
X117977466Y-133660380D02*
X117977466Y-134374666D01*
X117929847Y-134517523D01*
X117834609Y-134612761D01*
X117691752Y-134660380D01*
X117596514Y-134660380D01*
X118977466Y-134660380D02*
X118406038Y-134660380D01*
X118691752Y-134660380D02*
X118691752Y-133660380D01*
X118596514Y-133803238D01*
X118501276Y-133898476D01*
X118406038Y-133946095D01*
G04 #@! TO.C,R1*
X96053180Y-131279666D02*
X95576990Y-131613000D01*
X96053180Y-131851095D02*
X95053180Y-131851095D01*
X95053180Y-131470142D01*
X95100800Y-131374904D01*
X95148419Y-131327285D01*
X95243657Y-131279666D01*
X95386514Y-131279666D01*
X95481752Y-131327285D01*
X95529371Y-131374904D01*
X95576990Y-131470142D01*
X95576990Y-131851095D01*
X96053180Y-130327285D02*
X96053180Y-130898714D01*
X96053180Y-130613000D02*
X95053180Y-130613000D01*
X95196038Y-130708238D01*
X95291276Y-130803476D01*
X95338895Y-130898714D01*
G04 #@! TO.C,R2*
X102126380Y-131279666D02*
X101650190Y-131613000D01*
X102126380Y-131851095D02*
X101126380Y-131851095D01*
X101126380Y-131470142D01*
X101174000Y-131374904D01*
X101221619Y-131327285D01*
X101316857Y-131279666D01*
X101459714Y-131279666D01*
X101554952Y-131327285D01*
X101602571Y-131374904D01*
X101650190Y-131470142D01*
X101650190Y-131851095D01*
X101221619Y-130898714D02*
X101174000Y-130851095D01*
X101126380Y-130755857D01*
X101126380Y-130517761D01*
X101174000Y-130422523D01*
X101221619Y-130374904D01*
X101316857Y-130327285D01*
X101412095Y-130327285D01*
X101554952Y-130374904D01*
X102126380Y-130946333D01*
X102126380Y-130327285D01*
G04 #@! TO.C,SW4*
X118500666Y-116525761D02*
X118643523Y-116573380D01*
X118881619Y-116573380D01*
X118976857Y-116525761D01*
X119024476Y-116478142D01*
X119072095Y-116382904D01*
X119072095Y-116287666D01*
X119024476Y-116192428D01*
X118976857Y-116144809D01*
X118881619Y-116097190D01*
X118691142Y-116049571D01*
X118595904Y-116001952D01*
X118548285Y-115954333D01*
X118500666Y-115859095D01*
X118500666Y-115763857D01*
X118548285Y-115668619D01*
X118595904Y-115621000D01*
X118691142Y-115573380D01*
X118929238Y-115573380D01*
X119072095Y-115621000D01*
X119405428Y-115573380D02*
X119643523Y-116573380D01*
X119834000Y-115859095D01*
X120024476Y-116573380D01*
X120262571Y-115573380D01*
X121072095Y-115906714D02*
X121072095Y-116573380D01*
X120834000Y-115525761D02*
X120595904Y-116240047D01*
X121214952Y-116240047D01*
G04 #@! TO.C,SW5*
X133815466Y-116525761D02*
X133958323Y-116573380D01*
X134196419Y-116573380D01*
X134291657Y-116525761D01*
X134339276Y-116478142D01*
X134386895Y-116382904D01*
X134386895Y-116287666D01*
X134339276Y-116192428D01*
X134291657Y-116144809D01*
X134196419Y-116097190D01*
X134005942Y-116049571D01*
X133910704Y-116001952D01*
X133863085Y-115954333D01*
X133815466Y-115859095D01*
X133815466Y-115763857D01*
X133863085Y-115668619D01*
X133910704Y-115621000D01*
X134005942Y-115573380D01*
X134244038Y-115573380D01*
X134386895Y-115621000D01*
X134720228Y-115573380D02*
X134958323Y-116573380D01*
X135148800Y-115859095D01*
X135339276Y-116573380D01*
X135577371Y-115573380D01*
X136434514Y-115573380D02*
X135958323Y-115573380D01*
X135910704Y-116049571D01*
X135958323Y-116001952D01*
X136053561Y-115954333D01*
X136291657Y-115954333D01*
X136386895Y-116001952D01*
X136434514Y-116049571D01*
X136482133Y-116144809D01*
X136482133Y-116382904D01*
X136434514Y-116478142D01*
X136386895Y-116525761D01*
X136291657Y-116573380D01*
X136053561Y-116573380D01*
X135958323Y-116525761D01*
X135910704Y-116478142D01*
G04 #@! TO.C,C1*
X119157333Y-128423142D02*
X119109714Y-128470761D01*
X118966857Y-128518380D01*
X118871619Y-128518380D01*
X118728761Y-128470761D01*
X118633523Y-128375523D01*
X118585904Y-128280285D01*
X118538285Y-128089809D01*
X118538285Y-127946952D01*
X118585904Y-127756476D01*
X118633523Y-127661238D01*
X118728761Y-127566000D01*
X118871619Y-127518380D01*
X118966857Y-127518380D01*
X119109714Y-127566000D01*
X119157333Y-127613619D01*
X120109714Y-128518380D02*
X119538285Y-128518380D01*
X119824000Y-128518380D02*
X119824000Y-127518380D01*
X119728761Y-127661238D01*
X119633523Y-127756476D01*
X119538285Y-127804095D01*
G04 #@! TO.C,U1*
X128408895Y-94660380D02*
X128408895Y-95469904D01*
X128456514Y-95565142D01*
X128504133Y-95612761D01*
X128599371Y-95660380D01*
X128789847Y-95660380D01*
X128885085Y-95612761D01*
X128932704Y-95565142D01*
X128980323Y-95469904D01*
X128980323Y-94660380D01*
X129980323Y-95660380D02*
X129408895Y-95660380D01*
X129694609Y-95660380D02*
X129694609Y-94660380D01*
X129599371Y-94803238D01*
X129504133Y-94898476D01*
X129408895Y-94946095D01*
G04 #@! TO.C,SW1*
X91767466Y-133142761D02*
X91910323Y-133190380D01*
X92148419Y-133190380D01*
X92243657Y-133142761D01*
X92291276Y-133095142D01*
X92338895Y-132999904D01*
X92338895Y-132904666D01*
X92291276Y-132809428D01*
X92243657Y-132761809D01*
X92148419Y-132714190D01*
X91957942Y-132666571D01*
X91862704Y-132618952D01*
X91815085Y-132571333D01*
X91767466Y-132476095D01*
X91767466Y-132380857D01*
X91815085Y-132285619D01*
X91862704Y-132238000D01*
X91957942Y-132190380D01*
X92196038Y-132190380D01*
X92338895Y-132238000D01*
X92672228Y-132190380D02*
X92910323Y-133190380D01*
X93100800Y-132476095D01*
X93291276Y-133190380D01*
X93529371Y-132190380D01*
X94434133Y-133190380D02*
X93862704Y-133190380D01*
X94148419Y-133190380D02*
X94148419Y-132190380D01*
X94053180Y-132333238D01*
X93957942Y-132428476D01*
X93862704Y-132476095D01*
G04 #@! TO.C,SW2*
X102767466Y-133142761D02*
X102910323Y-133190380D01*
X103148419Y-133190380D01*
X103243657Y-133142761D01*
X103291276Y-133095142D01*
X103338895Y-132999904D01*
X103338895Y-132904666D01*
X103291276Y-132809428D01*
X103243657Y-132761809D01*
X103148419Y-132714190D01*
X102957942Y-132666571D01*
X102862704Y-132618952D01*
X102815085Y-132571333D01*
X102767466Y-132476095D01*
X102767466Y-132380857D01*
X102815085Y-132285619D01*
X102862704Y-132238000D01*
X102957942Y-132190380D01*
X103196038Y-132190380D01*
X103338895Y-132238000D01*
X103672228Y-132190380D02*
X103910323Y-133190380D01*
X104100800Y-132476095D01*
X104291276Y-133190380D01*
X104529371Y-132190380D01*
X104862704Y-132285619D02*
X104910323Y-132238000D01*
X105005561Y-132190380D01*
X105243657Y-132190380D01*
X105338895Y-132238000D01*
X105386514Y-132285619D01*
X105434133Y-132380857D01*
X105434133Y-132476095D01*
X105386514Y-132618952D01*
X104815085Y-133190380D01*
X105434133Y-133190380D01*
G04 #@! TO.C,J2*
X127140666Y-137318380D02*
X127140666Y-138032666D01*
X127093047Y-138175523D01*
X126997809Y-138270761D01*
X126854952Y-138318380D01*
X126759714Y-138318380D01*
X127569238Y-137413619D02*
X127616857Y-137366000D01*
X127712095Y-137318380D01*
X127950190Y-137318380D01*
X128045428Y-137366000D01*
X128093047Y-137413619D01*
X128140666Y-137508857D01*
X128140666Y-137604095D01*
X128093047Y-137746952D01*
X127521619Y-138318380D01*
X128140666Y-138318380D01*
G04 #@! TO.C,J3*
X137990666Y-137518380D02*
X137990666Y-138232666D01*
X137943047Y-138375523D01*
X137847809Y-138470761D01*
X137704952Y-138518380D01*
X137609714Y-138518380D01*
X138371619Y-137518380D02*
X138990666Y-137518380D01*
X138657333Y-137899333D01*
X138800190Y-137899333D01*
X138895428Y-137946952D01*
X138943047Y-137994571D01*
X138990666Y-138089809D01*
X138990666Y-138327904D01*
X138943047Y-138423142D01*
X138895428Y-138470761D01*
X138800190Y-138518380D01*
X138514476Y-138518380D01*
X138419238Y-138470761D01*
X138371619Y-138423142D01*
G04 #@! TO.C,R3*
X141704133Y-124089380D02*
X141370800Y-123613190D01*
X141132704Y-124089380D02*
X141132704Y-123089380D01*
X141513657Y-123089380D01*
X141608895Y-123137000D01*
X141656514Y-123184619D01*
X141704133Y-123279857D01*
X141704133Y-123422714D01*
X141656514Y-123517952D01*
X141608895Y-123565571D01*
X141513657Y-123613190D01*
X141132704Y-123613190D01*
X142037466Y-123089380D02*
X142656514Y-123089380D01*
X142323180Y-123470333D01*
X142466038Y-123470333D01*
X142561276Y-123517952D01*
X142608895Y-123565571D01*
X142656514Y-123660809D01*
X142656514Y-123898904D01*
X142608895Y-123994142D01*
X142561276Y-124041761D01*
X142466038Y-124089380D01*
X142180323Y-124089380D01*
X142085085Y-124041761D01*
X142037466Y-123994142D01*
G04 #@! TO.C,J4*
X99540666Y-75468380D02*
X99540666Y-76182666D01*
X99493047Y-76325523D01*
X99397809Y-76420761D01*
X99254952Y-76468380D01*
X99159714Y-76468380D01*
X100445428Y-75801714D02*
X100445428Y-76468380D01*
X100207333Y-75420761D02*
X99969238Y-76135047D01*
X100588285Y-76135047D01*
G04 #@! TO.C,SW6*
X118535866Y-124965761D02*
X118678723Y-125013380D01*
X118916819Y-125013380D01*
X119012057Y-124965761D01*
X119059676Y-124918142D01*
X119107295Y-124822904D01*
X119107295Y-124727666D01*
X119059676Y-124632428D01*
X119012057Y-124584809D01*
X118916819Y-124537190D01*
X118726342Y-124489571D01*
X118631104Y-124441952D01*
X118583485Y-124394333D01*
X118535866Y-124299095D01*
X118535866Y-124203857D01*
X118583485Y-124108619D01*
X118631104Y-124061000D01*
X118726342Y-124013380D01*
X118964438Y-124013380D01*
X119107295Y-124061000D01*
X119440628Y-124013380D02*
X119678723Y-125013380D01*
X119869200Y-124299095D01*
X120059676Y-125013380D01*
X120297771Y-124013380D01*
X121107295Y-124013380D02*
X120916819Y-124013380D01*
X120821580Y-124061000D01*
X120773961Y-124108619D01*
X120678723Y-124251476D01*
X120631104Y-124441952D01*
X120631104Y-124822904D01*
X120678723Y-124918142D01*
X120726342Y-124965761D01*
X120821580Y-125013380D01*
X121012057Y-125013380D01*
X121107295Y-124965761D01*
X121154914Y-124918142D01*
X121202533Y-124822904D01*
X121202533Y-124584809D01*
X121154914Y-124489571D01*
X121107295Y-124441952D01*
X121012057Y-124394333D01*
X120821580Y-124394333D01*
X120726342Y-124441952D01*
X120678723Y-124489571D01*
X120631104Y-124584809D01*
G04 #@! TO.C,SW3*
X129728761Y-123799333D02*
X129776380Y-123656476D01*
X129776380Y-123418380D01*
X129728761Y-123323142D01*
X129681142Y-123275523D01*
X129585904Y-123227904D01*
X129490666Y-123227904D01*
X129395428Y-123275523D01*
X129347809Y-123323142D01*
X129300190Y-123418380D01*
X129252571Y-123608857D01*
X129204952Y-123704095D01*
X129157333Y-123751714D01*
X129062095Y-123799333D01*
X128966857Y-123799333D01*
X128871619Y-123751714D01*
X128824000Y-123704095D01*
X128776380Y-123608857D01*
X128776380Y-123370761D01*
X128824000Y-123227904D01*
X128776380Y-122894571D02*
X129776380Y-122656476D01*
X129062095Y-122466000D01*
X129776380Y-122275523D01*
X128776380Y-122037428D01*
X128776380Y-121751714D02*
X128776380Y-121132666D01*
X129157333Y-121466000D01*
X129157333Y-121323142D01*
X129204952Y-121227904D01*
X129252571Y-121180285D01*
X129347809Y-121132666D01*
X129585904Y-121132666D01*
X129681142Y-121180285D01*
X129728761Y-121227904D01*
X129776380Y-121323142D01*
X129776380Y-121608857D01*
X129728761Y-121704095D01*
X129681142Y-121751714D01*
G04 #@! TO.C,U3*
X111976380Y-129227904D02*
X112785904Y-129227904D01*
X112881142Y-129180285D01*
X112928761Y-129132666D01*
X112976380Y-129037428D01*
X112976380Y-128846952D01*
X112928761Y-128751714D01*
X112881142Y-128704095D01*
X112785904Y-128656476D01*
X111976380Y-128656476D01*
X111976380Y-128275523D02*
X111976380Y-127656476D01*
X112357333Y-127989809D01*
X112357333Y-127846952D01*
X112404952Y-127751714D01*
X112452571Y-127704095D01*
X112547809Y-127656476D01*
X112785904Y-127656476D01*
X112881142Y-127704095D01*
X112928761Y-127751714D01*
X112976380Y-127846952D01*
X112976380Y-128132666D01*
X112928761Y-128227904D01*
X112881142Y-128275523D01*
G04 #@! TD*
M02*
