G04 #@! TF.GenerationSoftware,KiCad,Pcbnew,(5.0.1)-3*
G04 #@! TF.CreationDate,2019-03-20T13:05:33+01:00*
G04 #@! TF.ProjectId,FeatherWing and xBee motherboard,4665617468657257696E6720616E6420,rev?*
G04 #@! TF.SameCoordinates,Original*
G04 #@! TF.FileFunction,Copper,L1,Top,Signal*
G04 #@! TF.FilePolarity,Positive*
%FSLAX46Y46*%
G04 Gerber Fmt 4.6, Leading zero omitted, Abs format (unit mm)*
G04 Created by KiCad (PCBNEW (5.0.1)-3) date 20.03.2019 13:05:33*
%MOMM*%
%LPD*%
G01*
G04 APERTURE LIST*
G04 #@! TA.AperFunction,SMDPad,CuDef*
%ADD10R,0.450000X1.380000*%
G04 #@! TD*
G04 #@! TA.AperFunction,SMDPad,CuDef*
%ADD11R,1.475000X2.100000*%
G04 #@! TD*
G04 #@! TA.AperFunction,SMDPad,CuDef*
%ADD12R,2.375000X1.900000*%
G04 #@! TD*
G04 #@! TA.AperFunction,SMDPad,CuDef*
%ADD13R,1.175000X1.900000*%
G04 #@! TD*
G04 #@! TA.AperFunction,Conductor*
%ADD14C,0.100000*%
G04 #@! TD*
G04 #@! TA.AperFunction,SMDPad,CuDef*
%ADD15C,0.950000*%
G04 #@! TD*
G04 #@! TA.AperFunction,SMDPad,CuDef*
%ADD16R,1.000000X2.510000*%
G04 #@! TD*
G04 #@! TA.AperFunction,SMDPad,CuDef*
%ADD17R,2.000000X0.900000*%
G04 #@! TD*
G04 #@! TA.AperFunction,SMDPad,CuDef*
%ADD18R,1.900000X1.000000*%
G04 #@! TD*
G04 #@! TA.AperFunction,SMDPad,CuDef*
%ADD19R,1.600000X1.400000*%
G04 #@! TD*
G04 #@! TA.AperFunction,SMDPad,CuDef*
%ADD20R,1.000000X1.900000*%
G04 #@! TD*
G04 #@! TA.AperFunction,SMDPad,CuDef*
%ADD21R,0.660000X1.000000*%
G04 #@! TD*
G04 #@! TA.AperFunction,ViaPad*
%ADD22C,0.800000*%
G04 #@! TD*
G04 #@! TA.AperFunction,Conductor*
%ADD23C,0.250000*%
G04 #@! TD*
G04 APERTURE END LIST*
D10*
G04 #@! TO.P,J1,1*
G04 #@! TO.N,Net-(J1-Pad1)*
X113770800Y-136098000D03*
G04 #@! TO.P,J1,2*
G04 #@! TO.N,Net-(J1-Pad2)*
X114420800Y-136098000D03*
G04 #@! TO.P,J1,3*
G04 #@! TO.N,Net-(J1-Pad3)*
X115070800Y-136098000D03*
G04 #@! TO.P,J1,4*
G04 #@! TO.N,Net-(J1-Pad4)*
X115720800Y-136098000D03*
G04 #@! TO.P,J1,5*
G04 #@! TO.N,/GND*
X116370800Y-136098000D03*
D11*
G04 #@! TO.P,J1,6*
X112608300Y-136458000D03*
X117533300Y-136458000D03*
D12*
X112160800Y-138758000D03*
X117980800Y-138758000D03*
D13*
X114230800Y-138758000D03*
X115910800Y-138758000D03*
G04 #@! TD*
D14*
G04 #@! TO.N,Net-(R1-Pad2)*
G04 #@! TO.C,R1*
G36*
X97361579Y-131464144D02*
X97384634Y-131467563D01*
X97407243Y-131473227D01*
X97429187Y-131481079D01*
X97450257Y-131491044D01*
X97470248Y-131503026D01*
X97488968Y-131516910D01*
X97506238Y-131532562D01*
X97521890Y-131549832D01*
X97535774Y-131568552D01*
X97547756Y-131588543D01*
X97557721Y-131609613D01*
X97565573Y-131631557D01*
X97571237Y-131654166D01*
X97574656Y-131677221D01*
X97575800Y-131700500D01*
X97575800Y-132275500D01*
X97574656Y-132298779D01*
X97571237Y-132321834D01*
X97565573Y-132344443D01*
X97557721Y-132366387D01*
X97547756Y-132387457D01*
X97535774Y-132407448D01*
X97521890Y-132426168D01*
X97506238Y-132443438D01*
X97488968Y-132459090D01*
X97470248Y-132472974D01*
X97450257Y-132484956D01*
X97429187Y-132494921D01*
X97407243Y-132502773D01*
X97384634Y-132508437D01*
X97361579Y-132511856D01*
X97338300Y-132513000D01*
X96863300Y-132513000D01*
X96840021Y-132511856D01*
X96816966Y-132508437D01*
X96794357Y-132502773D01*
X96772413Y-132494921D01*
X96751343Y-132484956D01*
X96731352Y-132472974D01*
X96712632Y-132459090D01*
X96695362Y-132443438D01*
X96679710Y-132426168D01*
X96665826Y-132407448D01*
X96653844Y-132387457D01*
X96643879Y-132366387D01*
X96636027Y-132344443D01*
X96630363Y-132321834D01*
X96626944Y-132298779D01*
X96625800Y-132275500D01*
X96625800Y-131700500D01*
X96626944Y-131677221D01*
X96630363Y-131654166D01*
X96636027Y-131631557D01*
X96643879Y-131609613D01*
X96653844Y-131588543D01*
X96665826Y-131568552D01*
X96679710Y-131549832D01*
X96695362Y-131532562D01*
X96712632Y-131516910D01*
X96731352Y-131503026D01*
X96751343Y-131491044D01*
X96772413Y-131481079D01*
X96794357Y-131473227D01*
X96816966Y-131467563D01*
X96840021Y-131464144D01*
X96863300Y-131463000D01*
X97338300Y-131463000D01*
X97361579Y-131464144D01*
X97361579Y-131464144D01*
G37*
D15*
G04 #@! TD*
G04 #@! TO.P,R1,2*
G04 #@! TO.N,Net-(R1-Pad2)*
X97100800Y-131988000D03*
D14*
G04 #@! TO.N,/GND*
G04 #@! TO.C,R1*
G36*
X97361579Y-129714144D02*
X97384634Y-129717563D01*
X97407243Y-129723227D01*
X97429187Y-129731079D01*
X97450257Y-129741044D01*
X97470248Y-129753026D01*
X97488968Y-129766910D01*
X97506238Y-129782562D01*
X97521890Y-129799832D01*
X97535774Y-129818552D01*
X97547756Y-129838543D01*
X97557721Y-129859613D01*
X97565573Y-129881557D01*
X97571237Y-129904166D01*
X97574656Y-129927221D01*
X97575800Y-129950500D01*
X97575800Y-130525500D01*
X97574656Y-130548779D01*
X97571237Y-130571834D01*
X97565573Y-130594443D01*
X97557721Y-130616387D01*
X97547756Y-130637457D01*
X97535774Y-130657448D01*
X97521890Y-130676168D01*
X97506238Y-130693438D01*
X97488968Y-130709090D01*
X97470248Y-130722974D01*
X97450257Y-130734956D01*
X97429187Y-130744921D01*
X97407243Y-130752773D01*
X97384634Y-130758437D01*
X97361579Y-130761856D01*
X97338300Y-130763000D01*
X96863300Y-130763000D01*
X96840021Y-130761856D01*
X96816966Y-130758437D01*
X96794357Y-130752773D01*
X96772413Y-130744921D01*
X96751343Y-130734956D01*
X96731352Y-130722974D01*
X96712632Y-130709090D01*
X96695362Y-130693438D01*
X96679710Y-130676168D01*
X96665826Y-130657448D01*
X96653844Y-130637457D01*
X96643879Y-130616387D01*
X96636027Y-130594443D01*
X96630363Y-130571834D01*
X96626944Y-130548779D01*
X96625800Y-130525500D01*
X96625800Y-129950500D01*
X96626944Y-129927221D01*
X96630363Y-129904166D01*
X96636027Y-129881557D01*
X96643879Y-129859613D01*
X96653844Y-129838543D01*
X96665826Y-129818552D01*
X96679710Y-129799832D01*
X96695362Y-129782562D01*
X96712632Y-129766910D01*
X96731352Y-129753026D01*
X96751343Y-129741044D01*
X96772413Y-129731079D01*
X96794357Y-129723227D01*
X96816966Y-129717563D01*
X96840021Y-129714144D01*
X96863300Y-129713000D01*
X97338300Y-129713000D01*
X97361579Y-129714144D01*
X97361579Y-129714144D01*
G37*
D15*
G04 #@! TD*
G04 #@! TO.P,R1,1*
G04 #@! TO.N,/GND*
X97100800Y-130238000D03*
D14*
G04 #@! TO.N,/GND*
G04 #@! TO.C,R2*
G36*
X100361579Y-129714144D02*
X100384634Y-129717563D01*
X100407243Y-129723227D01*
X100429187Y-129731079D01*
X100450257Y-129741044D01*
X100470248Y-129753026D01*
X100488968Y-129766910D01*
X100506238Y-129782562D01*
X100521890Y-129799832D01*
X100535774Y-129818552D01*
X100547756Y-129838543D01*
X100557721Y-129859613D01*
X100565573Y-129881557D01*
X100571237Y-129904166D01*
X100574656Y-129927221D01*
X100575800Y-129950500D01*
X100575800Y-130525500D01*
X100574656Y-130548779D01*
X100571237Y-130571834D01*
X100565573Y-130594443D01*
X100557721Y-130616387D01*
X100547756Y-130637457D01*
X100535774Y-130657448D01*
X100521890Y-130676168D01*
X100506238Y-130693438D01*
X100488968Y-130709090D01*
X100470248Y-130722974D01*
X100450257Y-130734956D01*
X100429187Y-130744921D01*
X100407243Y-130752773D01*
X100384634Y-130758437D01*
X100361579Y-130761856D01*
X100338300Y-130763000D01*
X99863300Y-130763000D01*
X99840021Y-130761856D01*
X99816966Y-130758437D01*
X99794357Y-130752773D01*
X99772413Y-130744921D01*
X99751343Y-130734956D01*
X99731352Y-130722974D01*
X99712632Y-130709090D01*
X99695362Y-130693438D01*
X99679710Y-130676168D01*
X99665826Y-130657448D01*
X99653844Y-130637457D01*
X99643879Y-130616387D01*
X99636027Y-130594443D01*
X99630363Y-130571834D01*
X99626944Y-130548779D01*
X99625800Y-130525500D01*
X99625800Y-129950500D01*
X99626944Y-129927221D01*
X99630363Y-129904166D01*
X99636027Y-129881557D01*
X99643879Y-129859613D01*
X99653844Y-129838543D01*
X99665826Y-129818552D01*
X99679710Y-129799832D01*
X99695362Y-129782562D01*
X99712632Y-129766910D01*
X99731352Y-129753026D01*
X99751343Y-129741044D01*
X99772413Y-129731079D01*
X99794357Y-129723227D01*
X99816966Y-129717563D01*
X99840021Y-129714144D01*
X99863300Y-129713000D01*
X100338300Y-129713000D01*
X100361579Y-129714144D01*
X100361579Y-129714144D01*
G37*
D15*
G04 #@! TD*
G04 #@! TO.P,R2,1*
G04 #@! TO.N,/GND*
X100100800Y-130238000D03*
D14*
G04 #@! TO.N,Net-(R2-Pad2)*
G04 #@! TO.C,R2*
G36*
X100361579Y-131464144D02*
X100384634Y-131467563D01*
X100407243Y-131473227D01*
X100429187Y-131481079D01*
X100450257Y-131491044D01*
X100470248Y-131503026D01*
X100488968Y-131516910D01*
X100506238Y-131532562D01*
X100521890Y-131549832D01*
X100535774Y-131568552D01*
X100547756Y-131588543D01*
X100557721Y-131609613D01*
X100565573Y-131631557D01*
X100571237Y-131654166D01*
X100574656Y-131677221D01*
X100575800Y-131700500D01*
X100575800Y-132275500D01*
X100574656Y-132298779D01*
X100571237Y-132321834D01*
X100565573Y-132344443D01*
X100557721Y-132366387D01*
X100547756Y-132387457D01*
X100535774Y-132407448D01*
X100521890Y-132426168D01*
X100506238Y-132443438D01*
X100488968Y-132459090D01*
X100470248Y-132472974D01*
X100450257Y-132484956D01*
X100429187Y-132494921D01*
X100407243Y-132502773D01*
X100384634Y-132508437D01*
X100361579Y-132511856D01*
X100338300Y-132513000D01*
X99863300Y-132513000D01*
X99840021Y-132511856D01*
X99816966Y-132508437D01*
X99794357Y-132502773D01*
X99772413Y-132494921D01*
X99751343Y-132484956D01*
X99731352Y-132472974D01*
X99712632Y-132459090D01*
X99695362Y-132443438D01*
X99679710Y-132426168D01*
X99665826Y-132407448D01*
X99653844Y-132387457D01*
X99643879Y-132366387D01*
X99636027Y-132344443D01*
X99630363Y-132321834D01*
X99626944Y-132298779D01*
X99625800Y-132275500D01*
X99625800Y-131700500D01*
X99626944Y-131677221D01*
X99630363Y-131654166D01*
X99636027Y-131631557D01*
X99643879Y-131609613D01*
X99653844Y-131588543D01*
X99665826Y-131568552D01*
X99679710Y-131549832D01*
X99695362Y-131532562D01*
X99712632Y-131516910D01*
X99731352Y-131503026D01*
X99751343Y-131491044D01*
X99772413Y-131481079D01*
X99794357Y-131473227D01*
X99816966Y-131467563D01*
X99840021Y-131464144D01*
X99863300Y-131463000D01*
X100338300Y-131463000D01*
X100361579Y-131464144D01*
X100361579Y-131464144D01*
G37*
D15*
G04 #@! TD*
G04 #@! TO.P,R2,2*
G04 #@! TO.N,Net-(R2-Pad2)*
X100100800Y-131988000D03*
D16*
G04 #@! TO.P,SW4,1*
G04 #@! TO.N,Net-(SW4-Pad1)*
X117294000Y-115621000D03*
G04 #@! TO.P,SW4,3*
G04 #@! TO.N,Net-(J3-Pad1)*
X122374000Y-115621000D03*
G04 #@! TO.P,SW4,2*
G04 #@! TO.N,/nRF_VCC*
X119834000Y-112311000D03*
G04 #@! TD*
G04 #@! TO.P,SW5,2*
G04 #@! TO.N,/RN_VCC*
X135148800Y-112311000D03*
G04 #@! TO.P,SW5,3*
G04 #@! TO.N,Net-(J3-Pad1)*
X137688800Y-115621000D03*
G04 #@! TO.P,SW5,1*
G04 #@! TO.N,Net-(SW4-Pad1)*
X132608800Y-115621000D03*
G04 #@! TD*
D14*
G04 #@! TO.N,Net-(C1-Pad1)*
G04 #@! TO.C,C1*
G36*
X117584779Y-126238144D02*
X117607834Y-126241563D01*
X117630443Y-126247227D01*
X117652387Y-126255079D01*
X117673457Y-126265044D01*
X117693448Y-126277026D01*
X117712168Y-126290910D01*
X117729438Y-126306562D01*
X117745090Y-126323832D01*
X117758974Y-126342552D01*
X117770956Y-126362543D01*
X117780921Y-126383613D01*
X117788773Y-126405557D01*
X117794437Y-126428166D01*
X117797856Y-126451221D01*
X117799000Y-126474500D01*
X117799000Y-127049500D01*
X117797856Y-127072779D01*
X117794437Y-127095834D01*
X117788773Y-127118443D01*
X117780921Y-127140387D01*
X117770956Y-127161457D01*
X117758974Y-127181448D01*
X117745090Y-127200168D01*
X117729438Y-127217438D01*
X117712168Y-127233090D01*
X117693448Y-127246974D01*
X117673457Y-127258956D01*
X117652387Y-127268921D01*
X117630443Y-127276773D01*
X117607834Y-127282437D01*
X117584779Y-127285856D01*
X117561500Y-127287000D01*
X117086500Y-127287000D01*
X117063221Y-127285856D01*
X117040166Y-127282437D01*
X117017557Y-127276773D01*
X116995613Y-127268921D01*
X116974543Y-127258956D01*
X116954552Y-127246974D01*
X116935832Y-127233090D01*
X116918562Y-127217438D01*
X116902910Y-127200168D01*
X116889026Y-127181448D01*
X116877044Y-127161457D01*
X116867079Y-127140387D01*
X116859227Y-127118443D01*
X116853563Y-127095834D01*
X116850144Y-127072779D01*
X116849000Y-127049500D01*
X116849000Y-126474500D01*
X116850144Y-126451221D01*
X116853563Y-126428166D01*
X116859227Y-126405557D01*
X116867079Y-126383613D01*
X116877044Y-126362543D01*
X116889026Y-126342552D01*
X116902910Y-126323832D01*
X116918562Y-126306562D01*
X116935832Y-126290910D01*
X116954552Y-126277026D01*
X116974543Y-126265044D01*
X116995613Y-126255079D01*
X117017557Y-126247227D01*
X117040166Y-126241563D01*
X117063221Y-126238144D01*
X117086500Y-126237000D01*
X117561500Y-126237000D01*
X117584779Y-126238144D01*
X117584779Y-126238144D01*
G37*
D15*
G04 #@! TD*
G04 #@! TO.P,C1,1*
G04 #@! TO.N,Net-(C1-Pad1)*
X117324000Y-126762000D03*
D14*
G04 #@! TO.N,/GND*
G04 #@! TO.C,C1*
G36*
X117584779Y-127988144D02*
X117607834Y-127991563D01*
X117630443Y-127997227D01*
X117652387Y-128005079D01*
X117673457Y-128015044D01*
X117693448Y-128027026D01*
X117712168Y-128040910D01*
X117729438Y-128056562D01*
X117745090Y-128073832D01*
X117758974Y-128092552D01*
X117770956Y-128112543D01*
X117780921Y-128133613D01*
X117788773Y-128155557D01*
X117794437Y-128178166D01*
X117797856Y-128201221D01*
X117799000Y-128224500D01*
X117799000Y-128799500D01*
X117797856Y-128822779D01*
X117794437Y-128845834D01*
X117788773Y-128868443D01*
X117780921Y-128890387D01*
X117770956Y-128911457D01*
X117758974Y-128931448D01*
X117745090Y-128950168D01*
X117729438Y-128967438D01*
X117712168Y-128983090D01*
X117693448Y-128996974D01*
X117673457Y-129008956D01*
X117652387Y-129018921D01*
X117630443Y-129026773D01*
X117607834Y-129032437D01*
X117584779Y-129035856D01*
X117561500Y-129037000D01*
X117086500Y-129037000D01*
X117063221Y-129035856D01*
X117040166Y-129032437D01*
X117017557Y-129026773D01*
X116995613Y-129018921D01*
X116974543Y-129008956D01*
X116954552Y-128996974D01*
X116935832Y-128983090D01*
X116918562Y-128967438D01*
X116902910Y-128950168D01*
X116889026Y-128931448D01*
X116877044Y-128911457D01*
X116867079Y-128890387D01*
X116859227Y-128868443D01*
X116853563Y-128845834D01*
X116850144Y-128822779D01*
X116849000Y-128799500D01*
X116849000Y-128224500D01*
X116850144Y-128201221D01*
X116853563Y-128178166D01*
X116859227Y-128155557D01*
X116867079Y-128133613D01*
X116877044Y-128112543D01*
X116889026Y-128092552D01*
X116902910Y-128073832D01*
X116918562Y-128056562D01*
X116935832Y-128040910D01*
X116954552Y-128027026D01*
X116974543Y-128015044D01*
X116995613Y-128005079D01*
X117017557Y-127997227D01*
X117040166Y-127991563D01*
X117063221Y-127988144D01*
X117086500Y-127987000D01*
X117561500Y-127987000D01*
X117584779Y-127988144D01*
X117584779Y-127988144D01*
G37*
D15*
G04 #@! TD*
G04 #@! TO.P,C1,2*
G04 #@! TO.N,/GND*
X117324000Y-128512000D03*
D17*
G04 #@! TO.P,U1,19*
G04 #@! TO.N,Net-(U1-Pad19)*
X138874000Y-85266000D03*
G04 #@! TO.P,U1,17*
G04 #@! TO.N,Net-(U1-Pad17)*
X138874000Y-89266000D03*
G04 #@! TO.P,U1,15*
G04 #@! TO.N,Net-(U1-Pad15)*
X138874000Y-93266000D03*
G04 #@! TO.P,U1,13*
G04 #@! TO.N,Net-(U1-Pad13)*
X138874000Y-97266000D03*
G04 #@! TO.P,U1,11*
G04 #@! TO.N,Net-(U1-Pad11)*
X138874000Y-101266000D03*
G04 #@! TO.P,U1,20*
G04 #@! TO.N,Net-(U1-Pad20)*
X142074000Y-83266000D03*
G04 #@! TO.P,U1,18*
G04 #@! TO.N,Net-(U1-Pad18)*
X142074000Y-87266000D03*
G04 #@! TO.P,U1,16*
G04 #@! TO.N,Net-(U1-Pad16)*
X142074000Y-91266000D03*
G04 #@! TO.P,U1,14*
G04 #@! TO.N,Net-(U1-Pad14)*
X142074000Y-95266000D03*
G04 #@! TO.P,U1,12*
G04 #@! TO.N,Net-(U1-Pad12)*
X142074000Y-99266000D03*
G04 #@! TO.P,U1,2*
G04 #@! TO.N,/TX*
X116874000Y-85266000D03*
G04 #@! TO.P,U1,4*
G04 #@! TO.N,Net-(U1-Pad4)*
X116874000Y-89266000D03*
G04 #@! TO.P,U1,6*
G04 #@! TO.N,Net-(U1-Pad6)*
X116874000Y-93266000D03*
G04 #@! TO.P,U1,8*
G04 #@! TO.N,Net-(U1-Pad8)*
X116874000Y-97266000D03*
G04 #@! TO.P,U1,10*
G04 #@! TO.N,/GND*
X116874000Y-101266000D03*
G04 #@! TO.P,U1,1*
G04 #@! TO.N,/RN_VCC*
X120074000Y-83266000D03*
G04 #@! TO.P,U1,3*
G04 #@! TO.N,/RX*
X120074000Y-87266000D03*
G04 #@! TO.P,U1,5*
G04 #@! TO.N,/RESET*
X120074000Y-91266000D03*
G04 #@! TO.P,U1,7*
G04 #@! TO.N,Net-(U1-Pad7)*
X120074000Y-95266000D03*
G04 #@! TO.P,U1,9*
G04 #@! TO.N,Net-(U1-Pad9)*
X120074000Y-99266000D03*
G04 #@! TD*
D18*
G04 #@! TO.P,U2,27*
G04 #@! TO.N,Net-(U2-Pad27)*
X86734532Y-90866070D03*
G04 #@! TO.P,U2,25*
G04 #@! TO.N,Net-(U2-Pad25)*
X86734532Y-95946070D03*
G04 #@! TO.P,U2,23*
G04 #@! TO.N,Net-(U2-Pad23)*
X86734532Y-101026070D03*
G04 #@! TO.P,U2,21*
G04 #@! TO.N,Net-(U2-Pad21)*
X86734532Y-106106070D03*
G04 #@! TO.P,U2,19*
G04 #@! TO.N,Net-(U2-Pad19)*
X86734532Y-111186070D03*
G04 #@! TO.P,U2,17*
G04 #@! TO.N,Net-(U2-Pad17)*
X86734532Y-116266070D03*
G04 #@! TO.P,U2,28*
G04 #@! TO.N,Net-(U2-Pad28)*
X90034532Y-88326070D03*
G04 #@! TO.P,U2,26*
G04 #@! TO.N,Net-(U2-Pad26)*
X90034532Y-93406070D03*
G04 #@! TO.P,U2,24*
G04 #@! TO.N,Net-(U2-Pad24)*
X90034532Y-98486070D03*
G04 #@! TO.P,U2,22*
G04 #@! TO.N,Net-(U2-Pad22)*
X90034532Y-103566070D03*
G04 #@! TO.P,U2,20*
G04 #@! TO.N,Net-(U2-Pad20)*
X90034532Y-108646070D03*
G04 #@! TO.P,U2,18*
G04 #@! TO.N,Net-(U2-Pad18)*
X90034532Y-113726070D03*
G04 #@! TO.P,U2,15*
G04 #@! TO.N,Net-(U2-Pad15)*
X107050268Y-90868000D03*
G04 #@! TO.P,U2,13*
G04 #@! TO.N,Net-(U2-Pad13)*
X107050268Y-95948000D03*
G04 #@! TO.P,U2,11*
G04 #@! TO.N,/RX*
X107050268Y-101028000D03*
G04 #@! TO.P,U2,9*
G04 #@! TO.N,Net-(U2-Pad9)*
X107050268Y-106108000D03*
G04 #@! TO.P,U2,7*
G04 #@! TO.N,Net-(U2-Pad7)*
X107050268Y-111188000D03*
G04 #@! TO.P,U2,5*
G04 #@! TO.N,/BTN2*
X107050268Y-116268000D03*
G04 #@! TO.P,U2,3*
G04 #@! TO.N,Net-(U2-Pad3)*
X107050268Y-121348000D03*
G04 #@! TO.P,U2,1*
G04 #@! TO.N,/RESET*
X107050268Y-126428000D03*
G04 #@! TO.P,U2,16*
G04 #@! TO.N,/GND*
X110350268Y-88328000D03*
G04 #@! TO.P,U2,14*
G04 #@! TO.N,Net-(U2-Pad14)*
X110350268Y-93408000D03*
G04 #@! TO.P,U2,12*
G04 #@! TO.N,/TX*
X110350268Y-98488000D03*
G04 #@! TO.P,U2,10*
G04 #@! TO.N,Net-(U2-Pad10)*
X110350268Y-103568000D03*
G04 #@! TO.P,U2,8*
G04 #@! TO.N,Net-(U2-Pad8)*
X110350268Y-108648000D03*
G04 #@! TO.P,U2,6*
G04 #@! TO.N,/BTN1*
X110350268Y-113728000D03*
G04 #@! TO.P,U2,4*
G04 #@! TO.N,/GND*
X110350268Y-118808000D03*
G04 #@! TO.P,U2,2*
G04 #@! TO.N,/nRF_VCC*
X110350268Y-123888000D03*
G04 #@! TD*
D19*
G04 #@! TO.P,SW1,3*
G04 #@! TO.N,N/C*
X88900800Y-138488000D03*
G04 #@! TO.P,SW1,1*
G04 #@! TO.N,/BTN1*
X88900800Y-133988000D03*
G04 #@! TO.P,SW1,2*
G04 #@! TO.N,Net-(R1-Pad2)*
X97300800Y-133988000D03*
G04 #@! TO.P,SW1,4*
G04 #@! TO.N,N/C*
X97300800Y-138488000D03*
G04 #@! TD*
G04 #@! TO.P,SW2,4*
G04 #@! TO.N,N/C*
X108300800Y-138488000D03*
G04 #@! TO.P,SW2,2*
G04 #@! TO.N,/BTN2*
X108300800Y-133988000D03*
G04 #@! TO.P,SW2,1*
G04 #@! TO.N,Net-(R2-Pad2)*
X99900800Y-133988000D03*
G04 #@! TO.P,SW2,3*
G04 #@! TO.N,N/C*
X99900800Y-138488000D03*
G04 #@! TD*
D16*
G04 #@! TO.P,J2,1*
G04 #@! TO.N,Net-(J2-Pad1)*
X128248800Y-134150000D03*
G04 #@! TO.P,J2,2*
G04 #@! TO.N,/GND*
X125708800Y-137460000D03*
G04 #@! TD*
G04 #@! TO.P,J3,2*
G04 #@! TO.N,/GND*
X136608300Y-137563000D03*
G04 #@! TO.P,J3,1*
G04 #@! TO.N,Net-(J3-Pad1)*
X139148300Y-134253000D03*
G04 #@! TD*
D14*
G04 #@! TO.N,/GND*
G04 #@! TO.C,R3*
G36*
X142134779Y-121342144D02*
X142157834Y-121345563D01*
X142180443Y-121351227D01*
X142202387Y-121359079D01*
X142223457Y-121369044D01*
X142243448Y-121381026D01*
X142262168Y-121394910D01*
X142279438Y-121410562D01*
X142295090Y-121427832D01*
X142308974Y-121446552D01*
X142320956Y-121466543D01*
X142330921Y-121487613D01*
X142338773Y-121509557D01*
X142344437Y-121532166D01*
X142347856Y-121555221D01*
X142349000Y-121578500D01*
X142349000Y-122153500D01*
X142347856Y-122176779D01*
X142344437Y-122199834D01*
X142338773Y-122222443D01*
X142330921Y-122244387D01*
X142320956Y-122265457D01*
X142308974Y-122285448D01*
X142295090Y-122304168D01*
X142279438Y-122321438D01*
X142262168Y-122337090D01*
X142243448Y-122350974D01*
X142223457Y-122362956D01*
X142202387Y-122372921D01*
X142180443Y-122380773D01*
X142157834Y-122386437D01*
X142134779Y-122389856D01*
X142111500Y-122391000D01*
X141636500Y-122391000D01*
X141613221Y-122389856D01*
X141590166Y-122386437D01*
X141567557Y-122380773D01*
X141545613Y-122372921D01*
X141524543Y-122362956D01*
X141504552Y-122350974D01*
X141485832Y-122337090D01*
X141468562Y-122321438D01*
X141452910Y-122304168D01*
X141439026Y-122285448D01*
X141427044Y-122265457D01*
X141417079Y-122244387D01*
X141409227Y-122222443D01*
X141403563Y-122199834D01*
X141400144Y-122176779D01*
X141399000Y-122153500D01*
X141399000Y-121578500D01*
X141400144Y-121555221D01*
X141403563Y-121532166D01*
X141409227Y-121509557D01*
X141417079Y-121487613D01*
X141427044Y-121466543D01*
X141439026Y-121446552D01*
X141452910Y-121427832D01*
X141468562Y-121410562D01*
X141485832Y-121394910D01*
X141504552Y-121381026D01*
X141524543Y-121369044D01*
X141545613Y-121359079D01*
X141567557Y-121351227D01*
X141590166Y-121345563D01*
X141613221Y-121342144D01*
X141636500Y-121341000D01*
X142111500Y-121341000D01*
X142134779Y-121342144D01*
X142134779Y-121342144D01*
G37*
D15*
G04 #@! TD*
G04 #@! TO.P,R3,1*
G04 #@! TO.N,/GND*
X141874000Y-121866000D03*
D14*
G04 #@! TO.N,Net-(R3-Pad2)*
G04 #@! TO.C,R3*
G36*
X142134779Y-119592144D02*
X142157834Y-119595563D01*
X142180443Y-119601227D01*
X142202387Y-119609079D01*
X142223457Y-119619044D01*
X142243448Y-119631026D01*
X142262168Y-119644910D01*
X142279438Y-119660562D01*
X142295090Y-119677832D01*
X142308974Y-119696552D01*
X142320956Y-119716543D01*
X142330921Y-119737613D01*
X142338773Y-119759557D01*
X142344437Y-119782166D01*
X142347856Y-119805221D01*
X142349000Y-119828500D01*
X142349000Y-120403500D01*
X142347856Y-120426779D01*
X142344437Y-120449834D01*
X142338773Y-120472443D01*
X142330921Y-120494387D01*
X142320956Y-120515457D01*
X142308974Y-120535448D01*
X142295090Y-120554168D01*
X142279438Y-120571438D01*
X142262168Y-120587090D01*
X142243448Y-120600974D01*
X142223457Y-120612956D01*
X142202387Y-120622921D01*
X142180443Y-120630773D01*
X142157834Y-120636437D01*
X142134779Y-120639856D01*
X142111500Y-120641000D01*
X141636500Y-120641000D01*
X141613221Y-120639856D01*
X141590166Y-120636437D01*
X141567557Y-120630773D01*
X141545613Y-120622921D01*
X141524543Y-120612956D01*
X141504552Y-120600974D01*
X141485832Y-120587090D01*
X141468562Y-120571438D01*
X141452910Y-120554168D01*
X141439026Y-120535448D01*
X141427044Y-120515457D01*
X141417079Y-120494387D01*
X141409227Y-120472443D01*
X141403563Y-120449834D01*
X141400144Y-120426779D01*
X141399000Y-120403500D01*
X141399000Y-119828500D01*
X141400144Y-119805221D01*
X141403563Y-119782166D01*
X141409227Y-119759557D01*
X141417079Y-119737613D01*
X141427044Y-119716543D01*
X141439026Y-119696552D01*
X141452910Y-119677832D01*
X141468562Y-119660562D01*
X141485832Y-119644910D01*
X141504552Y-119631026D01*
X141524543Y-119619044D01*
X141545613Y-119609079D01*
X141567557Y-119601227D01*
X141590166Y-119595563D01*
X141613221Y-119592144D01*
X141636500Y-119591000D01*
X142111500Y-119591000D01*
X142134779Y-119592144D01*
X142134779Y-119592144D01*
G37*
D15*
G04 #@! TD*
G04 #@! TO.P,R3,2*
G04 #@! TO.N,Net-(R3-Pad2)*
X141874000Y-120116000D03*
D20*
G04 #@! TO.P,J4,2*
G04 #@! TO.N,/RX*
X94757400Y-79818000D03*
G04 #@! TO.P,J4,4*
G04 #@! TO.N,Net-(J4-Pad4)*
X99837400Y-79818000D03*
G04 #@! TO.P,J4,6*
G04 #@! TO.N,/GND*
X104917400Y-79818000D03*
G04 #@! TO.P,J4,1*
G04 #@! TO.N,/RESET*
X92217400Y-76518000D03*
G04 #@! TO.P,J4,3*
G04 #@! TO.N,/TX*
X97297400Y-76518000D03*
G04 #@! TO.P,J4,5*
G04 #@! TO.N,Net-(J4-Pad5)*
X102377400Y-76518000D03*
G04 #@! TD*
D16*
G04 #@! TO.P,SW6,2*
G04 #@! TO.N,Net-(SW4-Pad1)*
X119864000Y-120756000D03*
G04 #@! TO.P,SW6,3*
G04 #@! TO.N,Net-(J2-Pad1)*
X122404000Y-124066000D03*
G04 #@! TO.P,SW6,1*
G04 #@! TO.N,Net-(C1-Pad1)*
X117324000Y-124066000D03*
G04 #@! TD*
D19*
G04 #@! TO.P,SW3,4*
G04 #@! TO.N,N/C*
X139324000Y-124661000D03*
G04 #@! TO.P,SW3,2*
G04 #@! TO.N,Net-(R3-Pad2)*
X139324000Y-120161000D03*
G04 #@! TO.P,SW3,1*
G04 #@! TO.N,/RESET*
X130924000Y-120161000D03*
G04 #@! TO.P,SW3,3*
G04 #@! TO.N,N/C*
X130924000Y-124661000D03*
G04 #@! TD*
D21*
G04 #@! TO.P,U3,3*
G04 #@! TO.N,Net-(J1-Pad1)*
X115670800Y-129761000D03*
G04 #@! TO.P,U3,2*
G04 #@! TO.N,/GND*
X114720800Y-129761000D03*
G04 #@! TO.P,U3,1*
G04 #@! TO.N,Net-(J1-Pad1)*
X113770800Y-129761000D03*
G04 #@! TO.P,U3,5*
G04 #@! TO.N,Net-(C1-Pad1)*
X113770800Y-127161000D03*
G04 #@! TO.P,U3,4*
G04 #@! TO.N,Net-(U3-Pad4)*
X115670800Y-127161000D03*
G04 #@! TD*
D22*
G04 #@! TO.N,/GND*
X112608300Y-133458000D03*
X98600799Y-130238000D03*
X112350268Y-88328000D03*
X113874000Y-101266000D03*
G04 #@! TD*
D23*
G04 #@! TO.N,/GND*
X97100800Y-130238000D02*
X98813400Y-130238000D01*
X116361600Y-136088800D02*
X116370800Y-136098000D01*
X116361600Y-131762000D02*
X116361600Y-136088800D01*
X117173300Y-136098000D02*
X117533300Y-136458000D01*
X116370800Y-136098000D02*
X117173300Y-136098000D01*
X117533300Y-138310500D02*
X117980800Y-138758000D01*
X117533300Y-136458000D02*
X117533300Y-138310500D01*
X117980800Y-138758000D02*
X115910800Y-138758000D01*
X115910800Y-138758000D02*
X114230800Y-138758000D01*
X114230800Y-138758000D02*
X112160800Y-138758000D01*
X112160800Y-136905500D02*
X112608300Y-136458000D01*
X112160800Y-138758000D02*
X112160800Y-136905500D01*
X112608300Y-136458000D02*
X112608300Y-133458000D01*
X112608300Y-133458000D02*
X112608300Y-133458000D01*
X126024550Y-137563000D02*
X125979550Y-137518000D01*
X136608300Y-137563000D02*
X126024550Y-137563000D01*
X117533300Y-136914500D02*
X117533300Y-136458000D01*
X118078800Y-137460000D02*
X117533300Y-136914500D01*
X125708800Y-137460000D02*
X118078800Y-137460000D01*
X98813400Y-130238000D02*
X100100800Y-130238000D01*
X109900268Y-88328000D02*
X110350268Y-88328000D01*
X104917400Y-83345132D02*
X109900268Y-88328000D01*
X104917400Y-79818000D02*
X104917400Y-83345132D01*
X110350268Y-88328000D02*
X112350268Y-88328000D01*
X112350268Y-88328000D02*
X112350268Y-88328000D01*
X116874000Y-101266000D02*
X113874000Y-101266000D01*
X113874000Y-101266000D02*
X113874000Y-101266000D01*
X141874000Y-122491000D02*
X141874000Y-121866000D01*
X141874000Y-133867302D02*
X141874000Y-122491000D01*
X138178302Y-137563000D02*
X141874000Y-133867302D01*
X136608300Y-137563000D02*
X138178302Y-137563000D01*
X116874000Y-101966000D02*
X116874000Y-101266000D01*
X116874000Y-111534268D02*
X116874000Y-101966000D01*
X110350268Y-118058000D02*
X116874000Y-111534268D01*
X110350268Y-118808000D02*
X110350268Y-118058000D01*
X116370800Y-135158000D02*
X116370800Y-136098000D01*
X114720800Y-129011000D02*
X114795801Y-128935999D01*
X116749000Y-128512000D02*
X117324000Y-128512000D01*
X115219800Y-128512000D02*
X116749000Y-128512000D01*
X114720800Y-129011000D02*
X115219800Y-128512000D01*
X114720800Y-129761000D02*
X114720800Y-129011000D01*
X116370800Y-129465200D02*
X117324000Y-128512000D01*
X116370800Y-136098000D02*
X116370800Y-129465200D01*
G04 #@! TO.N,/TX*
X116874000Y-85966000D02*
X116874000Y-85266000D01*
X115548999Y-87291001D02*
X116874000Y-85966000D01*
X115548999Y-92539269D02*
X115548999Y-87291001D01*
X110350268Y-97738000D02*
X115548999Y-92539269D01*
X110350268Y-98488000D02*
X110350268Y-97738000D01*
X98047400Y-76518000D02*
X97297400Y-76518000D01*
X99322401Y-77793001D02*
X98047400Y-76518000D01*
X110101001Y-77793001D02*
X99322401Y-77793001D01*
X116874000Y-84566000D02*
X110101001Y-77793001D01*
X116874000Y-85266000D02*
X116874000Y-84566000D01*
G04 #@! TO.N,/RX*
X108250268Y-101028000D02*
X107050268Y-101028000D01*
X111147002Y-101028000D02*
X108250268Y-101028000D01*
X118748999Y-93426003D02*
X111147002Y-101028000D01*
X118748999Y-89291001D02*
X118748999Y-93426003D01*
X120074000Y-87966000D02*
X118748999Y-89291001D01*
X120074000Y-87266000D02*
X120074000Y-87966000D01*
X94757400Y-81018000D02*
X94757400Y-79818000D01*
X94757400Y-87985132D02*
X94757400Y-81018000D01*
X107050268Y-100278000D02*
X94757400Y-87985132D01*
X107050268Y-101028000D02*
X107050268Y-100278000D01*
G04 #@! TO.N,/RESET*
X107050268Y-126428000D02*
X107050268Y-125152998D01*
X92967400Y-76518000D02*
X92217400Y-76518000D01*
X94242401Y-75242999D02*
X92967400Y-76518000D01*
X110086001Y-75242999D02*
X94242401Y-75242999D01*
X121399001Y-86555999D02*
X110086001Y-75242999D01*
X121399001Y-89240999D02*
X121399001Y-86555999D01*
X120074000Y-90566000D02*
X121399001Y-89240999D01*
X120074000Y-91266000D02*
X120074000Y-90566000D01*
X108250268Y-126428000D02*
X107050268Y-126428000D01*
X109845270Y-126428000D02*
X108250268Y-126428000D01*
X113787271Y-122485999D02*
X109845270Y-126428000D01*
X121643999Y-122485999D02*
X113787271Y-122485999D01*
X123968998Y-120161000D02*
X121643999Y-122485999D01*
X130948800Y-120161000D02*
X123968998Y-120161000D01*
X121399001Y-93291001D02*
X120074000Y-91966000D01*
X121399001Y-107645677D02*
X121399001Y-93291001D01*
X120074000Y-91966000D02*
X120074000Y-91266000D01*
X116018989Y-113025689D02*
X121399001Y-107645677D01*
X116018989Y-115174281D02*
X116018989Y-113025689D01*
X107050268Y-124143002D02*
X116018989Y-115174281D01*
X107050268Y-126428000D02*
X107050268Y-124143002D01*
G04 #@! TO.N,Net-(J2-Pad1)*
X123154000Y-124066000D02*
X122404000Y-124066000D01*
X128248800Y-129160800D02*
X123154000Y-124066000D01*
X128248800Y-134150000D02*
X128248800Y-129160800D01*
G04 #@! TO.N,Net-(R1-Pad2)*
X97100800Y-133788000D02*
X97300800Y-133988000D01*
X97100800Y-131988000D02*
X97100800Y-133788000D01*
G04 #@! TO.N,Net-(R2-Pad2)*
X100100800Y-131988000D02*
X100100800Y-133788000D01*
X100100800Y-133788000D02*
X99900800Y-133988000D01*
G04 #@! TO.N,/BTN1*
X109150268Y-113728000D02*
X110350268Y-113728000D01*
X107555266Y-113728000D02*
X109150268Y-113728000D01*
X88900800Y-132382466D02*
X107555266Y-113728000D01*
X88900800Y-133988000D02*
X88900800Y-132382466D01*
G04 #@! TO.N,/BTN2*
X108300800Y-133988000D02*
X108400800Y-133988000D01*
X107050268Y-117018000D02*
X107050268Y-116268000D01*
X105775267Y-118293001D02*
X107050268Y-117018000D01*
X105775267Y-130512467D02*
X105775267Y-118293001D01*
X108300800Y-133038000D02*
X105775267Y-130512467D01*
X108300800Y-133988000D02*
X108300800Y-133038000D01*
G04 #@! TO.N,/nRF_VCC*
X119084000Y-112311000D02*
X119834000Y-112311000D01*
X118263998Y-112311000D02*
X119084000Y-112311000D01*
X116468999Y-114105999D02*
X118263998Y-112311000D01*
X116468999Y-117019269D02*
X116468999Y-114105999D01*
X110350268Y-123138000D02*
X116468999Y-117019269D01*
X110350268Y-123888000D02*
X110350268Y-123138000D01*
G04 #@! TO.N,/RN_VCC*
X135148800Y-112111000D02*
X135148800Y-105606000D01*
X135148800Y-110606000D02*
X135148800Y-112111000D01*
X135148800Y-99040800D02*
X135148800Y-110606000D01*
X120074000Y-83966000D02*
X135148800Y-99040800D01*
X120074000Y-83266000D02*
X120074000Y-83966000D01*
G04 #@! TO.N,Net-(C1-Pad1)*
X116574000Y-124066000D02*
X117324000Y-124066000D01*
X113770800Y-126869200D02*
X116574000Y-124066000D01*
X113770800Y-127161000D02*
X113770800Y-126869200D01*
X117324000Y-124066000D02*
X117324000Y-126762000D01*
G04 #@! TO.N,Net-(J3-Pad1)*
X137718800Y-115451000D02*
X137688800Y-115421000D01*
X137688800Y-117126000D02*
X137688800Y-115621000D01*
X137688800Y-131288500D02*
X137688800Y-117126000D01*
X139148300Y-132748000D02*
X137688800Y-131288500D01*
X139148300Y-134253000D02*
X139148300Y-132748000D01*
X136938800Y-115621000D02*
X137688800Y-115621000D01*
X135358799Y-114040999D02*
X136938800Y-115621000D01*
X124704001Y-114040999D02*
X135358799Y-114040999D01*
X123124000Y-115621000D02*
X124704001Y-114040999D01*
X122374000Y-115621000D02*
X123124000Y-115621000D01*
G04 #@! TO.N,Net-(J1-Pad1)*
X113770800Y-131762000D02*
X113770800Y-129761000D01*
X113770800Y-132411000D02*
X113770800Y-132762000D01*
X115670800Y-130511000D02*
X113770800Y-132411000D01*
X115670800Y-129761000D02*
X115670800Y-130511000D01*
X113770800Y-136098000D02*
X113770800Y-132762000D01*
X113770800Y-132762000D02*
X113770800Y-131762000D01*
G04 #@! TO.N,Net-(R3-Pad2)*
X139643310Y-120116000D02*
X139598310Y-120161000D01*
X141874000Y-120116000D02*
X139643310Y-120116000D01*
G04 #@! TO.N,Net-(SW4-Pad1)*
X118044000Y-115621000D02*
X117294000Y-115621000D01*
X119864000Y-117441000D02*
X118044000Y-115621000D01*
X119864000Y-120756000D02*
X119864000Y-117441000D01*
X131858800Y-115621000D02*
X132608800Y-115621000D01*
X125749000Y-115621000D02*
X131858800Y-115621000D01*
X120614000Y-120756000D02*
X125749000Y-115621000D01*
X119864000Y-120756000D02*
X120614000Y-120756000D01*
G04 #@! TD*
M02*
